<svg xmlns="http://www.w3.org/2000/svg" viewBox="0 0 512 512">
  <defs>
    <linearGradient id="bg" x1="0" x2="1" y1="0" y2="1">
      <stop offset="0%" stop-color="#0EA5E9"/>
      <stop offset="100%" stop-color="#22C55E"/>
    </linearGradient>
    <linearGradient id="page" x1="0" x2="1" y1="0" y2="1">
      <stop offset="0%" stop-color="#FFFFFF"/>
      <stop offset="100%" stop-color="#E2E8F0"/>
    </linearGradient>
  </defs>
  <rect width="512" height="512" rx="124" fill="#0F172A"/>
  <rect x="42" y="42" width="428" height="428" rx="108" fill="url(#bg)"/>
  <path d="M156 146c0-18 14-32 32-32h136c36 0 66 11 95 32v184c-28-18-58-26-95-26H188c-18 0-32 14-32 32V146z" fill="url(#page)"/>
  <path d="M356 146c0-18-14-32-32-32H188c-36 0-66 11-95 32v184c28-18 58-26 95-26h136c18 0 32 14 32 32V146z" fill="#F8FAFC" opacity="0.92"/>
  <path d="M256 126v220" stroke="#0EA5E9" stroke-width="16" stroke-linecap="round"/>
  <path d="M194 188h42M194 228h42M194 268h42M278 188h40M278 228h40M278 268h40" stroke="#94A3B8" stroke-width="14" stroke-linecap="round"/>
  <circle cx="386" cy="128" r="42" fill="#F59E0B"/>
  <path d="M386 102l9 18 20 3-14 14 4 20-19-10-18 10 3-20-14-14 20-3z" fill="#FFF7ED"/>
</svg>
