<svg xmlns="http://www.w3.org/2000/svg" viewBox="0 0 512 512">
  <defs>
    <linearGradient id="mask-bg" x1="0" x2="1" y1="0" y2="1">
      <stop offset="0%" stop-color="#0F172A"/>
      <stop offset="100%" stop-color="#1E293B"/>
    </linearGradient>
    <linearGradient id="mask-accent" x1="0" x2="1" y1="0" y2="1">
      <stop offset="0%" stop-color="#38BDF8"/>
      <stop offset="100%" stop-color="#22C55E"/>
    </linearGradient>
  </defs>
  <rect width="512" height="512" fill="url(#mask-bg)"/>
  <rect x="96" y="96" width="320" height="320" rx="86" fill="url(#mask-accent)"/>
  <path d="M180 172c0-15 12-27 27-27h98c27 0 51 8 77 24v138c-23-14-48-20-77-20h-98c-15 0-27 12-27 27V172z" fill="#FFFFFF"/>
  <path d="M332 172c0-15-12-27-27-27h-98c-27 0-51 8-77 24v138c23-14 48-20 77-20h98c15 0 27 12 27 27V172z" fill="#F8FAFC" opacity="0.93"/>
  <path d="M256 154v170" stroke="#0EA5E9" stroke-width="14" stroke-linecap="round"/>
  <path d="M213 204h28M213 236h28M213 268h28M271 204h29M271 236h29M271 268h29" stroke="#64748B" stroke-width="11" stroke-linecap="round"/>
  <circle cx="336" cy="173" r="30" fill="#F59E0B"/>
  <path d="M336 154l7 13 15 2-11 11 3 15-14-7-14 7 3-15-10-11 14-2z" fill="#FFF7ED"/>
</svg>
